HIERARCHY
ROOT Hips
{
    OFFSET 0.000000 0.000000 0.000000
    CHANNELS 6 Xposition Yposition Zposition Zrotation Xrotation Yrotation
    JOINT Spine
    {
        OFFSET -0.000000 14.517291 0.000000
        CHANNELS 3 Zrotation Xrotation Yrotation
        JOINT Spine1
        {
            OFFSET -0.000000 37.558300 0.000000
            CHANNELS 3 Zrotation Xrotation Yrotation
            JOINT Neck
            {
                OFFSET -0.000000 37.404057 3.400369
                CHANNELS 3 Zrotation Xrotation Yrotation
                JOINT Head
                {
                    OFFSET -0.000000 24.785618 -3.540803
                    CHANNELS 3 Zrotation Xrotation Yrotation
                    End Site
                    {
                        OFFSET -0.000000 35.408028 0.000000
                    }
                }
            }
            JOINT LeftShoulder
            {
                OFFSET 6.992933 33.973492 -0.192664
                CHANNELS 3 Zrotation Xrotation Yrotation
                JOINT LeftArm
                {
                    OFFSET 21.527611 0.000000 0.000000
                    CHANNELS 3 Zrotation Xrotation Yrotation
                    JOINT LeftForeArm
                    {
                        OFFSET 56.353916 0.000000 0.000000
                        CHANNELS 3 Zrotation Xrotation Yrotation
                        JOINT LeftHand
                        {
                            OFFSET 47.774071 0.000000 0.000000
                            CHANNELS 3 Zrotation Xrotation Yrotation
                            End Site
                            {
                                OFFSET 26.556021 0.000000 0.000000
                            }
                        }
                    }
                }
            }
            JOINT RightShoulder
            {
                OFFSET -7.065357 33.973492 -0.192664
                CHANNELS 3 Zrotation Xrotation Yrotation
                JOINT RightArm
                {
                    OFFSET -21.527611 0.000000 0.000000
                    CHANNELS 3 Zrotation Xrotation Yrotation
                    JOINT RightForeArm
                    {
                        OFFSET -56.353916 0.000000 0.000000
                        CHANNELS 3 Zrotation Xrotation Yrotation
                        JOINT RightHand
                        {
                            OFFSET -47.774071 0.000000 0.000000
                            CHANNELS 3 Zrotation Xrotation Yrotation
                            End Site
                            {
                                OFFSET -26.556021 0.000000 0.000000
                            }
                        }
                    }
                }
            }
        }
    }
    JOINT LeftUpLeg
    {
        OFFSET 17.704014 0.000000 0.000000
        CHANNELS 3 Zrotation Xrotation Yrotation
        JOINT LeftLeg
        {
            OFFSET -0.000000 -81.181816 0.000000
            CHANNELS 3 Zrotation Xrotation Yrotation
            JOINT LeftFoot
            {
                OFFSET -0.000000 -62.821102 0.000000
                CHANNELS 3 Zrotation Xrotation Yrotation
                JOINT LeftToeBase
                {
                    OFFSET -0.000000 -11.507608 26.556021
                    CHANNELS 3 Zrotation Xrotation Yrotation
                    End Site
                    {
                        OFFSET -0.000000 0.000000 7.081605
                    }
                }
            }
        }
    }
    JOINT RightUpLeg
    {
        OFFSET -17.704014 0.000000 0.000000
        CHANNELS 3 Zrotation Xrotation Yrotation
        JOINT RightLeg
        {
            OFFSET -0.000000 -81.181816 0.000000
            CHANNELS 3 Zrotation Xrotation Yrotation
            JOINT RightFoot
            {
                OFFSET -0.000000 -62.821102 0.000000
                CHANNELS 3 Zrotation Xrotation Yrotation
                JOINT RightToeBase
                {
                    OFFSET -0.000000 -11.507608 26.556021
                    CHANNELS 3 Zrotation Xrotation Yrotation
                    End Site
                    {
                        OFFSET -0.000000 0.000000 7.081605
                    }
                }
            }
        }
    }
}
MOTION
Frames:    9
Frame Time:    0.008333
28.293997    143.009979    51.500137    5.392624    2.395390    -64.597397    0.223011    3.513589    -2.637713    -0.214388    -1.275214    -0.880052    21.351761    11.559391    21.383560    -19.534264    0.576365    18.754763    14.271959    1.462864    -18.657196    -3.833244    1.191393    -10.555746    0.959909    -1.762187    1.035566    -5.978430    -0.575627    -22.596029    -6.942469    -2.719267    -8.046988    32.992977    -27.402390    46.164600    11.587723    -30.504103    110.869270    28.137566    -36.494305    37.638126    39.061882    -23.433674    34.147442    -37.443832    47.642658    11.263148    2.934637    -17.106888    44.017567    0.000000    0.000000    0.000000    -33.454414    -17.240572    -17.093748    3.941401    36.857998    -6.039201    20.999687    -10.552081    8.361672    0.000000    0.000000    0.000000    
28.293270    142.987701    51.509541    5.397844    2.397431    -64.590546    0.236195    3.517215    -2.646285    -0.230795    -1.271081    -0.882950    21.361059    11.564052    21.376389    -19.547537    0.563050    18.743708    14.276337    1.466271    -18.655319    -3.828745    1.164763    -10.625129    0.951742    -1.746943    1.024620    -5.916406    -0.568474    -22.673359    -6.944353    -2.729872    -8.045759    33.010628    -27.392475    46.172222    11.588487    -30.498905    110.865845    28.156347    -36.482918    37.642658    39.080780    -23.448730    34.170456    -37.476482    47.678555    11.286457    2.930565    -17.129427    43.994740    0.000000    0.000000    0.000000    -33.468307    -17.257427    -17.085333    3.949514    36.896252    -6.024593    20.901772    -10.563133    8.416903    0.000000    0.000000    0.000000    
28.291941    142.966797    51.519566    5.403341    2.396488    -64.584816    0.239376    3.518219    -2.655639    -0.246576    -1.262126    -0.886199    21.369314    11.550417    21.379766    -19.525959    0.567659    18.747747    14.289822    1.475254    -18.656693    -3.831894    1.185937    -10.693852    0.985933    -1.758686    1.000491    -5.892114    -0.581186    -22.747854    -6.925444    -2.746075    -8.032285    32.995613    -27.370634    46.162395    11.576365    -30.527519    110.861130    28.176584    -36.489368    37.635578    39.095901    -23.456354    34.175831    -37.531296    47.696033    11.314731    2.947538    -17.140274    43.992126    0.000000    0.000000    0.000000    -33.483662    -17.275328    -17.086634    3.949063    36.940556    -6.036343    20.911980    -10.579197    8.428611    0.000000    0.000000    0.000000    
28.295067    142.941879    51.530720    5.411677    2.391962    -64.584068    0.229936    3.519528    -2.656704    -0.241407    -1.248151    -0.886557    21.351976    11.558545    21.369484    -19.512457    0.524838    18.733854    14.286439    1.454061    -18.674726    -3.842963    1.281235    -10.736606    1.045437    -1.788989    0.927216    -5.885398    -0.614937    -22.706923    -6.921005    -2.744708    -8.037817    33.004906    -27.378908    46.178062    11.587328    -30.518124    110.855888    28.194918    -36.483883    37.649872    39.108311    -23.468515    34.208305    -37.564568    47.735104    11.323656    2.970879    -17.144434    43.993729    0.000000    0.000000    0.000000    -33.510490    -17.295523    -17.069777    3.968714    36.984783    -6.056180    20.884272    -10.621768    8.448799    0.000000    0.000000    0.000000    
28.295296    142.921158    51.540649    5.416131    2.385575    -64.581940    0.225541    3.525682    -2.664229    -0.245168    -1.242390    -0.889151    21.345078    11.546144    21.365141    -19.494125    0.535373    18.731258    14.286901    1.464468    -18.686245    -3.839379    1.260599    -10.802658    1.060592    -1.742741    0.924222    -5.897592    -0.560068    -22.822952    -6.922879    -2.750168    -8.028911    33.017731    -27.377615    46.173740    11.592709    -30.492710    110.862122    28.172993    -36.480137    37.626240    39.118507    -23.472790    34.228119    -37.593990    47.765423    11.332641    2.969492    -17.157476    43.984699    0.000000    0.000000    0.000000    -33.526878    -17.315100    -17.072121    3.956528    37.034698    -6.030954    21.021460    -10.650158    8.358629    0.000000    0.000000    0.000000    
28.297447    142.898087    51.550346    5.419913    2.378196    -64.578247    0.203297    3.537060    -2.673453    -0.219478    -1.244702    -0.892164    21.349897    11.573123    21.354527    -19.522905    0.515091    18.718040    14.268257    1.478128    -18.712049    -3.833202    1.234296    -10.848066    1.094977    -1.753566    0.873252    -5.951489    -0.558104    -22.854322    -6.930400    -2.736218    -8.022086    33.038490    -27.389660    46.184792    11.599086    -30.466585    110.858620    28.169502    -36.465069    37.620243    39.125488    -23.480673    34.254642    -37.619015    47.801266    11.347134    2.967122    -17.179529    43.978859    0.000000    0.000000    0.000000    -33.550873    -17.337616    -17.087679    3.949917    37.087753    -6.039584    20.961021    -10.634517    8.436561    0.000000    0.000000    0.000000    
28.301203    142.875504    51.565350    5.423551    2.370913    -64.576225    0.194423    3.545026    -2.682895    -0.211747    -1.237707    -0.895318    21.335768    11.570558    21.356079    -19.506207    0.509467    18.721067    14.248934    1.495121    -18.731455    -3.802612    1.085702    -10.909109    1.056555    -1.728327    0.810300    -5.852852    -0.555792    -22.782469    -6.929886    -2.727097    -8.015731    33.051048    -27.401545    46.190418    11.613397    -30.432718    110.865379    28.145763    -36.462090    37.607979    39.132286    -23.481812    34.259979    -37.674381    47.815102    11.357001    2.995329    -17.191298    44.005695    0.000000    0.000000    0.000000    -33.577625    -17.355581    -17.088081    3.964835    37.135422    -6.037431    20.950586    -10.661735    8.421571    0.000000    0.000000    0.000000    
28.307034    142.851517    51.574455    5.433390    2.371723    -64.579506    0.177761    3.547205    -2.686213    -0.189359    -1.235937    -0.896387    21.339531    11.584842    21.352835    -19.527693    0.499637    18.715858    14.241421    1.525104    -18.742682    -3.781264    0.872903    -10.986329    0.989046    -1.657522    0.735269    -5.784620    -0.496651    -22.801037    -6.939375    -2.719584    -8.016557    33.071735    -27.415041    46.195782    11.620393    -30.388111    110.860054    28.102156    -36.446487    37.581646    39.151047    -23.492802    34.303364    -37.703278    47.855495    11.362894    3.027446    -17.198927    44.000973    0.000000    0.000000    0.000000    -33.595184    -17.384130    -17.090469    3.967233    37.184711    -6.053921    21.056276    -10.697562    8.370289    0.000000    0.000000    0.000000    
28.311733    142.828537    51.586151    5.435637    2.374116    -64.579239    0.175892    3.552861    -2.699303    -0.182160    -1.225750    -0.900641    21.341099    11.590765    21.356262    -19.534092    0.486302    18.717501    14.226945    1.540426    -18.749771    -3.749476    0.650409    -11.067986    0.923012    -1.575972    0.666318    -5.806235    -0.397906    -23.024405    -6.934605    -2.717188    -8.013532    33.071598    -27.408772    46.200241    11.623803    -30.375362    110.864296    28.101582    -36.439590    37.582928    39.172623    -23.497360    34.320396    -37.753036    47.875805    11.390901    3.055974    -17.203371    43.992504    0.000000    0.000000    0.000000    -33.613316    -17.401154    -17.096182    3.978983    37.224293    -6.047137    21.066067    -10.712108    8.369208    0.000000    0.000000    0.000000    
